<svg xmlns="http://www.w3.org/2000/svg" fill-rule="evenodd" viewBox="0 0 100 100">
    <path d="M28.804 14.451a2.831 2.831 0 1 0 0 5.662 2.831 2.831 0 1 0 0-5.662z"/>
    <path d="M95.044 52.218 76.345 8.902a1.5 1.5 0 0 0-1.377-.905h-.001c-.6 0-1.141.357-1.377.908l-18.588 43.27a1.501 1.501 0 0 0 1.376 2.093l16.229.021c.037.003.074.004.111.004l.669.001v11.804l-3.693-.005h-.002a1.5 1.5 0 0 0-1.5 1.498l-.032 23.802a1.5 1.5 0 0 0 1.498 1.502l10.622.018h.003a1.502 1.502 0 0 0 1.5-1.499l.024-23.806a1.5 1.5 0 0 0-1.498-1.501l-3.921-.005V54.297l17.278.017h.002a1.5 1.5 0 0 0 1.376-2.096zM78.783 89.909l-7.622-.013.028-20.803 7.614.01-.02 20.806zm-2.397-38.614V34.269a1.5 1.5 0 1 0-3 0v17.023h-.436a1.985 1.985 0 0 0-.11-.004l-14.185-.018L74.97 13.29l16.414 38.021-14.998-.016zm-25.114-6.397H40.466a5.43 5.43 0 0 1-5.425-5.424c0-2.319 1.203-7.1 2.366-11.724.937-3.722 1.821-7.238 2.149-9.695.344-2.545-.454-5.078-2.248-7.129-2.1-2.402-5.278-3.836-8.502-3.836-3.23 0-6.413 1.436-8.512 3.841-1.791 2.051-2.586 4.583-2.239 7.125.336 2.492 1.272 6.054 2.264 9.825 1.203 4.574 2.446 9.303 2.446 11.594a5.43 5.43 0 0 1-5.425 5.424h-11a1.5 1.5 0 0 0-1.5 1.5v12.955c-.001.025-.007.048-.007.073s.006.048.007.073v31.658a1.5 1.5 0 0 0 1.5 1.5h44.931a1.5 1.5 0 0 0 1.5-1.5V46.4a1.498 1.498 0 0 0-1.499-1.502zm-33.931 3c4.646 0 8.425-3.779 8.425-8.424 0-2.678-1.236-7.379-2.545-12.356-.925-3.518-1.881-7.155-2.193-9.466-.229-1.673.313-3.359 1.526-4.749 1.515-1.735 3.911-2.813 6.252-2.813 2.336 0 4.729 1.077 6.244 2.811 1.215 1.39 1.76 3.078 1.533 4.755-.306 2.291-1.21 5.886-2.085 9.363-1.264 5.022-2.457 9.765-2.457 12.456 0 4.645 3.78 8.424 8.425 8.424h9.306v10.028H7.841V47.899h9.5v-.001zm-9.5 41.758v-28.73h41.931v28.73H7.841z"/>
</svg>
