<svg xmlns="http://www.w3.org/2000/svg" fill-rule="evenodd" viewBox="0 0 100 100">
    <path d="M95.576 49.668h-8.011V36.177a1.5 1.5 0 0 0-1.5-1.5h-24.99V21.222a1.5 1.5 0 0 0-1.5-1.5H4.425a1.5 1.5 0 0 0-1.5 1.5v50.505a1.5 1.5 0 0 0 1.5 1.5H17.33c.516 3.971 3.913 7.052 8.023 7.052 4.104 0 7.497-3.08 8.012-7.052h36.197c.515 3.971 3.909 7.052 8.015 7.052 4.11 0 7.506-3.08 8.022-7.052h9.978a1.5 1.5 0 0 0 1.5-1.5v-20.56a1.501 1.501 0 0 0-1.501-1.499zM25.352 77.279a5.104 5.104 0 0 1-5.099-5.098 5.104 5.104 0 0 1 5.099-5.099c2.805 0 5.087 2.287 5.087 5.099 0 2.811-2.282 5.098-5.087 5.098zm0-13.196c-3.791 0-6.973 2.621-7.85 6.145H5.925V22.722h52.15v47.505H33.191c-.876-3.523-4.054-6.144-7.839-6.144zm52.224 13.196a5.1 5.1 0 0 1-5.091-5.098 5.1 5.1 0 0 1 5.091-5.099 5.104 5.104 0 0 1 5.098 5.099 5.105 5.105 0 0 1-5.098 5.098zm16.5-7.052h-8.651c-.878-3.523-4.059-6.145-7.849-6.145-3.787 0-6.966 2.621-7.843 6.145h-8.658V37.676h23.49v13.491a1.5 1.5 0 0 0 1.5 1.5h8.011v17.56z"/>
</svg>
