<?xml version="1.0" encoding="UTF-8"?> <svg xmlns="http://www.w3.org/2000/svg" width="87" height="42" viewBox="0 0 87 42" fill="none"><g opacity="0.4" clip-path="url(#clip0_733_7078)"><mask id="mask0_733_7078" style="mask-type:luminance" maskUnits="userSpaceOnUse" x="1" y="-10" width="86" height="48"><path d="M86.14 -10H1V37.9671H86.14V-10Z" fill="white"></path></mask><g mask="url(#mask0_733_7078)"><path d="M85.798 11.0338C85.0778 9.85959 83.4781 9.66392 81.6577 9.84305C82.8187 8.76569 83.4023 7.79758 82.9872 6.82224C82.0133 4.53086 77.7422 5.4125 76.4562 5.73504L76.6785 6.61048L76.3055 6.50694L73.8892 15.2499L73.6296 15.2836L73.5258 14.548C73.3023 14.579 70.0705 14.9973 67.3636 15.3473L68.09 13.0451L72.6561 12.4756L72.4016 10.4731L68.7547 10.9266L69.3871 8.92101L69.3764 8.91737L75.3879 7.87785L75.0415 5.88622L66.0374 7.4435L66.3838 9.43459L67.1417 9.30309L65.1467 15.6341L63.804 15.8075L65.4894 11.5685L63.6065 10.8236L62.633 13.2718C60.2978 13.6917 58.2481 13.2625 57.5934 12.589C57.4278 12.4186 57.4352 12.313 57.453 12.2266C57.4588 12.212 58.2688 10.75 65.7386 9.4993L65.4033 7.5061C59.2283 8.54153 55.8893 9.97298 55.4824 11.7632C55.2983 12.5765 55.5313 13.3681 56.1397 13.9945C56.7386 14.6106 57.7138 15.0475 58.8847 15.2743L55.2722 17.8882L55.1166 16.9899L53.5909 17.255C54.4005 15.4524 55.8529 11.7373 54.9075 10.1107C54.7618 9.85484 54.5516 9.64122 54.2983 9.49074C54.0445 9.34027 53.7561 9.2581 53.4614 9.25235C51.4994 9.17573 48.9659 11.8171 44.9991 16.7347C44.4701 17.3901 44.0132 17.9565 43.7371 18.262L44.3923 18.8527L41.4262 19.3673C42.5434 18.0269 43.3124 16.6048 43.7094 15.5104C44.2044 14.1405 43.9445 12.8939 43.0479 12.3342C41.8636 11.595 40.2078 12.2338 38.003 14.2891L36.9651 13.1657C36.9133 13.2107 36.8614 13.2609 36.8043 13.3148L36.6486 12.3508L27.81 13.7673L28.1307 15.7625L28.5391 15.6973C27.4411 18.2946 25.7754 22.7846 25.5439 23.4137L27.4426 24.1136C28.1909 22.0914 30.1877 16.8062 30.924 15.3152L35.5382 14.5754C33.9295 16.2812 31.8477 18.9241 32.0941 20.967C32.1912 21.7735 32.627 22.4119 33.3541 22.8121C33.7692 23.0419 34.2881 23.1533 34.8589 23.1533C36.0052 23.1533 37.3803 22.7049 38.6604 21.8662C39.5143 21.3002 40.2948 20.6311 40.9841 19.8741L41.2586 21.4479L53.398 19.3419L54.5425 20.9163L61.636 15.7837L60.4733 18.7087L62.3545 19.4543L63.6839 16.1109L63.907 17.8323C64.2386 17.7893 70.9641 16.9211 73.1433 16.6374L73.2286 17.3694C75.8664 17.0645 84.577 15.8541 85.928 13.0854C86.2492 12.4233 86.2045 11.6944 85.798 11.0338ZM37.5463 20.179C36.1203 21.1109 34.7639 21.2812 34.3327 21.0441C34.161 20.9499 34.1215 20.8635 34.1049 20.7267C33.9845 19.7266 35.4151 17.5455 37.5297 15.428L38.6345 16.5013C40.6442 14.4392 41.6301 14.1219 41.9264 14.0773C41.942 14.2177 41.9264 14.4817 41.8024 14.8249C41.1979 16.4966 39.6474 18.7999 37.5463 20.179ZM46.5752 18.0047C47.8724 16.3946 51.7184 11.6286 53.1977 11.2926C53.3285 12.1587 52.5412 14.9611 51.3062 17.3498L51.7482 17.577L46.1332 18.5509C46.2723 18.3797 46.42 18.1966 46.5769 18.0016L46.5752 18.0047ZM81.0311 7.52268C80.6486 8.22883 78.6598 9.69704 77.8817 10.2696C77.6934 10.4089 77.5183 10.5388 77.3564 10.6589L77.2472 10.6838L78.1387 7.45851C79.5464 7.24261 80.7041 7.30989 81.0344 7.51958L81.0311 7.52268ZM76.0762 14.9181L76.6818 12.7282L76.7083 12.8664C77.0949 12.7919 77.546 12.6889 78.0679 12.5698C79.2865 12.2913 80.8026 11.9449 82.0824 11.8419C83.8067 11.7037 84.065 12.0883 84.0671 12.092C84.0844 12.1197 84.0993 12.149 84.1114 12.1795C83.969 12.9156 80.6283 14.1219 76.08 14.915L76.0762 14.9181Z" fill="white"></path><path d="M25.5667 23.0803L25.2772 21.0809L17.3898 22.2162C17.6668 21.407 18.0041 20.5275 18.3285 19.7193L18.4275 20.3799L24.2788 19.505L23.9783 17.5062L18.9299 18.2615C19.0943 17.8717 19.2371 17.5409 19.3424 17.2991L27.0814 15.8676L26.7124 13.8807L16.5631 15.7579L16.9305 17.7448L16.9502 17.7412C16.3794 19.1054 15.6089 21.0317 15.1584 22.5372L13.6925 22.749L21.679 3.07927L19.8022 2.32031L14.1164 16.3222C12.7533 16.5261 11.4908 16.7208 10.3647 16.8984L12.6511 11.6028L10.7908 10.8034L7.99543 17.2784C6.07545 17.5916 4.92088 17.793 4.90012 17.7961L5.25038 19.7867C5.26594 19.7835 5.91407 19.6707 7.04374 19.4827L1 33.4814L2.86029 34.2807L9.41619 19.094C10.5225 18.9164 11.8099 18.714 13.2328 18.4976L5.63696 37.2063L7.51439 37.9647L13.6022 22.9721L13.8617 24.7659L25.5667 23.0803Z" fill="white"></path><path d="M26.2178 32.8133C25.3255 32.8133 24.7373 32.408 24.7373 31.6873C24.7373 30.9665 25.3255 30.5642 26.2178 30.5642C27.0291 30.5642 27.6201 30.926 27.6781 31.4991H27.1363C27.0783 31.1576 26.6843 30.9521 26.2265 30.9521C25.6876 30.9521 25.2965 31.2097 25.2965 31.6873C25.2965 32.1591 25.6876 32.4196 26.2265 32.4196C26.7017 32.4196 27.0957 32.2228 27.145 31.8667H27.6839C27.6346 32.4457 27.0349 32.8133 26.2178 32.8133ZM29.3954 32.8133C28.4596 32.8133 27.8801 32.4109 27.8801 31.6873C27.8801 30.9636 28.4596 30.5642 29.3954 30.5642C30.3284 30.5642 30.9078 30.9636 30.9078 31.6873C30.9078 32.4109 30.3284 32.8133 29.3954 32.8133ZM28.4393 31.6873C28.4393 32.1591 28.8275 32.4196 29.3954 32.4196C29.9604 32.4196 30.3486 32.1475 30.3486 31.6873C30.3486 31.2241 29.9604 30.955 29.3954 30.955C28.8275 30.955 28.4393 31.2126 28.4393 31.6873ZM32.4957 32.8133C31.6497 32.8133 31.105 32.4833 31.105 31.9854H31.641C31.641 32.3212 31.9742 32.4225 32.4957 32.4225C32.9737 32.4225 33.2751 32.3357 33.2751 32.0838V32.0809C33.2751 31.9304 33.0983 31.832 32.7304 31.832H32.1422V31.4904H32.7304C32.9969 31.4904 33.2171 31.4326 33.2171 31.2444V31.2415C33.2171 31.0823 33.0288 30.9521 32.5015 30.9521C31.9191 30.9521 31.6613 31.1171 31.6613 31.366H31.1281C31.1281 30.9029 31.6352 30.5642 32.4986 30.5642C33.2953 30.5642 33.7734 30.8189 33.7734 31.1778V31.1807C33.7734 31.4789 33.5097 31.6294 33.2374 31.6496C33.5097 31.6757 33.8256 31.8233 33.8256 32.1446V32.1475C33.8256 32.5788 33.2982 32.8133 32.4957 32.8133ZM34.5111 33.1432H33.9837V32.3588H34.0069C34.456 32.3588 34.5255 31.832 34.5255 31.4123V30.6105H36.6956V32.3588H37.0172V33.1432H36.4899V32.7612H34.5111V33.1432ZM34.7834 32.3588H36.1423V31.0128H35.0529V31.3486C35.0529 31.7944 34.9746 32.1504 34.7834 32.3588ZM37.0801 32.7612L38.2042 30.6105H38.9402L40.073 32.7612H39.4559L39.227 32.2865H37.9232L37.6914 32.7612H37.0801ZM38.0999 31.9188H39.0503L38.6012 30.9926L38.578 30.9434H38.5722L38.5519 30.9926L38.0999 31.9188ZM42.4862 32.7612V31.8407H40.9128V32.7612H40.3594V30.6105H40.9128V31.4355H42.4862V30.6105H43.0396V32.7612H42.4862ZM44.9341 32.8133C43.9982 32.8133 43.4188 32.4109 43.4188 31.6873C43.4188 30.9636 43.9982 30.5642 44.9341 30.5642C45.867 30.5642 46.4465 30.9636 46.4465 31.6873C46.4465 32.4109 45.867 32.8133 44.9341 32.8133ZM43.9779 31.6873C43.9779 32.1591 44.3662 32.4196 44.9341 32.4196C45.499 32.4196 45.8873 32.1475 45.8873 31.6873C45.8873 31.2241 45.499 30.955 44.9341 30.955C44.3662 30.955 43.9779 31.2126 43.9779 31.6873ZM48.1042 32.7612V30.6105H48.6575V31.4644H49.1964L49.886 30.6105H50.5437L49.6571 31.6554V31.6728L50.6654 32.7612H50.0106L49.1964 31.8696H48.6575V32.7612H48.1042ZM52.1244 32.8133C51.1886 32.8133 50.6091 32.4109 50.6091 31.6873C50.6091 30.9636 51.1886 30.5642 52.1244 30.5642C53.0573 30.5642 53.6368 30.9636 53.6368 31.6873C53.6368 32.4109 53.0573 32.8133 52.1244 32.8133ZM51.1683 31.6873C51.1683 32.1591 51.5565 32.4196 52.1244 32.4196C52.6894 32.4196 53.0776 32.1475 53.0776 31.6873C53.0776 31.2241 52.6894 30.955 52.1244 30.955C51.5565 30.955 51.1683 31.2126 51.1683 31.6873ZM54.0164 32.7612V30.6105H54.6711L55.6475 31.9681L55.6736 32.0115L55.6997 31.9681L56.6732 30.6105H57.3309V32.7612H56.8065V31.2502L56.8094 31.2126L56.792 31.2415L55.9112 32.4283H55.436L54.5553 31.2415L54.5379 31.2126L54.5408 31.2502V32.7612H54.0164ZM57.6198 32.7612L58.744 30.6105H59.4799L60.6127 32.7612H59.9956L59.7667 32.2865H58.4629L58.2311 32.7612H57.6198ZM58.6397 31.9188H59.59L59.1409 30.9926L59.1177 30.9434H59.1119L59.0916 30.9926L58.6397 31.9188ZM63.0258 32.7612V31.8407H61.4525V32.7612H60.8992V30.6105H61.4525V31.4355H63.0258V30.6105H63.5792V32.7612H63.0258ZM64.448 33.1432H63.9207V32.3588H63.9438C64.3929 32.3588 64.4625 31.832 64.4625 31.4123V30.6105H66.6325V32.3588H66.9542V33.1432H66.4268V32.7612H64.448V33.1432ZM64.7203 32.3588H66.0792V31.0128H64.9898V31.3486C64.9898 31.7944 64.9115 32.1504 64.7203 32.3588ZM68.6222 32.8133C67.6864 32.8133 67.1069 32.4109 67.1069 31.6873C67.1069 30.9636 67.6864 30.5642 68.6222 30.5642C69.5551 30.5642 70.1346 30.9636 70.1346 31.6873C70.1346 32.4109 69.5551 32.8133 68.6222 32.8133ZM67.6661 31.6873C67.6661 32.1591 68.0543 32.4196 68.6222 32.4196C69.1872 32.4196 69.5754 32.1475 69.5754 31.6873C69.5754 31.2241 69.1872 30.955 68.6222 30.955C68.0543 30.955 67.6661 31.2126 67.6661 31.6873ZM73.2927 32.7612H72.7654V31.2097L72.7538 31.2241L71.0965 32.7612H70.5141V30.6105H71.0386V32.1678L71.0559 32.1475L72.7045 30.6105H73.2927V32.7612ZM71.2443 29.8984H71.5485C71.5369 30.0837 71.6151 30.1937 71.8208 30.1937C72.0323 30.1937 72.1077 30.0837 72.0961 29.8984H72.4003C72.4206 30.2458 72.2438 30.4281 71.8208 30.4281C71.4007 30.4281 71.2269 30.2458 71.2443 29.8984Z" fill="white"></path></g></g><defs><clipPath id="clip0_733_7078"><rect width="87" height="42" fill="white"></rect></clipPath></defs></svg> 