<?xml version="1.0" encoding="UTF-8"?> <svg xmlns="http://www.w3.org/2000/svg" width="796" height="200" viewBox="0 0 796 200" fill="none"> <path fill-rule="evenodd" clip-rule="evenodd" d="M796 0H0V200H796V0ZM666 180C711.287 180 748 143.287 748 98C748 52.7129 711.287 16 666 16C620.713 16 584 52.7129 584 98C584 143.287 620.713 180 666 180Z" fill="white"></path> <path d="M680.273 107.447L675.479 115.036C675.038 115.731 674.124 115.949 673.416 115.53C669.126 112.974 665.174 109.888 661.655 106.344C658.111 102.826 655.025 98.8739 652.47 94.5833C652.051 93.8743 652.271 92.9601 652.967 92.5202L660.552 87.7261L652.415 71.4578L639.243 76.7269C641.755 90.0144 647.728 101.367 657.182 110.818C666.629 120.271 677.985 126.245 691.273 128.756L696.542 115.581L680.273 107.447L680.273 107.447ZM663.81 104.186C666.801 107.198 670.121 109.865 673.706 112.138L678.433 104.655C678.851 103.993 679.703 103.755 680.404 104.107L699.159 113.485H699.16C699.866 113.839 700.184 114.676 699.891 115.411L693.641 131.042C693.373 131.71 692.676 132.1 691.968 131.978C677.537 129.5 665.209 123.158 655.024 112.976C644.842 102.791 638.5 90.4599 636.022 76.0324C635.9 75.3241 636.29 74.6265 636.958 74.3593L652.589 68.1086C653.324 67.8157 654.161 68.1336 654.515 68.8402L663.893 87.5953V87.5959C664.245 88.2965 664.007 89.1488 663.345 89.5674L655.862 94.2943C658.134 97.8793 660.8 101.198 663.811 104.19L663.81 104.186Z" fill="white"></path> </svg> 