<?xml version="1.0" encoding="UTF-8"?> <svg xmlns="http://www.w3.org/2000/svg" width="1108" height="200" viewBox="0 0 1108 200" fill="none"> <g filter="url(#filter0_b_92_3)"> <circle cx="992" cy="100" r="88" fill="white" fill-opacity="0.01"></circle> </g> <path fill-rule="evenodd" clip-rule="evenodd" d="M1108 0H0V200H1108V0ZM992 178C1036.18 178 1072 142.183 1072 98C1072 53.8173 1036.18 18 992 18C947.817 18 912 53.8173 912 98C912 142.183 947.817 178 992 178Z" fill="white"></path> <path d="M1014.12 101.644C1015.26 100.849 1015.26 99.1514 1014.12 98.356L980.139 74.8166C978.813 73.8976 977 74.8469 977 76.4606L977 123.539C977 125.153 978.813 126.102 980.139 125.183L1014.12 101.644Z" stroke="white"></path> <defs> <filter id="filter0_b_92_3" x="868" y="-24" width="248" height="248" filterUnits="userSpaceOnUse" color-interpolation-filters="sRGB"> <feFlood flood-opacity="0" result="BackgroundImageFix"></feFlood> <feGaussianBlur in="BackgroundImage" stdDeviation="4.5"></feGaussianBlur> <feComposite in2="SourceAlpha" operator="in" result="effect1_backgroundBlur_92_3"></feComposite> <feBlend mode="normal" in="SourceGraphic" in2="effect1_backgroundBlur_92_3" result="shape"></feBlend> </filter> </defs> </svg> 