<?xml version="1.0" encoding="UTF-8"?> <svg xmlns="http://www.w3.org/2000/svg" width="43" height="42" viewBox="0 0 43 42" fill="none"> <path d="M5.17531 0.662014C4.91189 0.659141 4.65057 0.708948 4.40683 0.808477C4.1631 0.908009 3.94191 1.05524 3.75638 1.24145C3.57084 1.42766 3.42472 1.64906 3.32669 1.89252C3.22867 2.13599 3.18072 2.39657 3.18569 2.65883C3.19066 2.92109 3.24844 3.17969 3.35563 3.4193C3.46281 3.65891 3.61721 3.87466 3.80967 4.05377C4.00213 4.23287 4.22873 4.37169 4.47607 4.462C4.7234 4.5523 4.98642 4.59226 5.24954 4.57949L35.3771 4.00296L0.576551 38.6542C0.207403 39.0217 1.94556e-05 39.5203 1.90322e-05 40.0401C1.86405e-05 40.5599 0.207403 41.0584 0.576551 41.426C0.9457 41.7935 1.44637 42 1.96843 42C2.49048 42 2.99115 41.7935 3.3603 41.426L38.1609 6.77476L37.5782 36.7694C37.5838 37.279 37.7886 37.7665 38.1491 38.1283C38.5096 38.4901 38.9975 38.6979 39.5093 38.7075C40.0211 38.7171 40.5166 38.5278 40.8905 38.1798C41.2645 37.8318 41.4876 37.3524 41.5125 36.8433L42.1788 2.66326C42.1855 2.31173 42.121 1.96245 41.989 1.63635C41.857 1.31025 41.6602 1.01402 41.4105 0.76541C41.1609 0.516796 40.8634 0.320907 40.5359 0.189471C40.2083 0.0580341 39.8576 -0.0062443 39.5045 0.000478469L5.17531 0.662014Z" fill="#0D0D0D"></path> </svg> 