<?xml version="1.0" encoding="UTF-8"?> <svg xmlns="http://www.w3.org/2000/svg" width="43" height="42" viewBox="0 0 43 42" fill="none"> <path d="M5.17528 0.66189C4.91186 0.659018 4.65054 0.708821 4.4068 0.808352C4.16307 0.907884 3.94189 1.05511 3.75635 1.24132C3.57081 1.42753 3.4247 1.64893 3.32667 1.89239C3.22864 2.13586 3.18069 2.39644 3.18566 2.6587C3.19063 2.92096 3.24842 3.17955 3.3556 3.41916C3.46279 3.65878 3.61718 3.87452 3.80964 4.05363C4.0021 4.23274 4.22871 4.37156 4.47604 4.46186C4.72337 4.55217 4.98639 4.59212 5.24951 4.57936L35.377 4.00282L0.576534 38.6539C0.207387 39.0215 4.11651e-06 39.52 3.73543e-06 40.0398C3.33318e-06 40.5597 0.207387 41.0582 0.576534 41.4257C0.945682 41.7933 1.44635 41.9998 1.9684 41.9998C2.49046 41.9998 2.99113 41.7933 3.36028 41.4257L38.1608 6.77462L37.578 36.7691C37.5836 37.2788 37.7884 37.7662 38.149 38.1281C38.5095 38.4899 38.9974 38.6976 39.5092 38.7073C40.021 38.7169 40.5164 38.5276 40.8904 38.1796C41.2644 37.8315 41.4875 37.3521 41.5124 36.843L42.1786 2.66313C42.1854 2.3116 42.1208 1.96233 41.9888 1.63623C41.8568 1.31012 41.6601 1.0139 41.4104 0.765285C41.1607 0.516672 40.8632 0.320785 40.5357 0.189348C40.2082 0.0579116 39.8574 -0.00636665 39.5044 0.000356094L5.17528 0.66189Z" fill="white"></path> </svg> 