<?xml version="1.0" encoding="UTF-8"?> <svg xmlns="http://www.w3.org/2000/svg" width="92" height="92" viewBox="0 0 92 92" fill="none"> <path d="M63.6428 56.705L56.7513 67.6138C56.1173 68.6132 54.8038 68.9273 53.7856 68.324C47.6181 64.6499 41.9373 60.2142 36.8795 55.1196C31.7848 50.0618 27.3491 44.3812 23.675 38.2134C23.0726 37.1944 23.3892 35.8801 24.3895 35.2477L35.2939 28.3563L23.5972 4.97065L4.66242 12.5449C8.27233 31.6457 16.859 47.965 30.4488 61.5504C44.0298 75.1399 60.3533 83.7269 79.4543 87.3368L87.0285 68.3976L63.6428 56.705ZM39.9768 52.0178C44.2765 56.3466 49.0485 60.1809 54.202 63.4478L60.9969 52.692C61.5984 51.7397 62.8237 51.3983 63.8309 51.904L90.7914 65.384C91.8071 65.894 92.2649 67.097 91.8439 68.153L82.8585 90.623C82.4743 91.583 81.4715 92.1435 80.4534 91.968C59.7097 88.4059 41.9885 79.2897 27.3473 64.6527C12.7105 50.0115 3.59368 32.2861 0.0319536 11.5466C-0.143456 10.5284 0.416996 9.52556 1.37704 9.14149L23.847 0.156124C24.9029 -0.264865 26.1058 0.19206 26.616 1.20773L40.096 28.1682C40.6017 29.1753 40.2603 30.4014 39.308 31.0031L28.5522 37.798C31.8174 42.9515 35.6499 47.7228 39.9778 52.0232L39.9768 52.0178Z" fill="white"></path> </svg> 