<?xml version="1.0" encoding="UTF-8"?> <svg xmlns="http://www.w3.org/2000/svg" width="43" height="42" viewBox="0 0 43 42" fill="none"> <path d="M5.17529 0.662014C4.91187 0.659142 4.65055 0.708946 4.40682 0.808477C4.16308 0.908009 3.9419 1.05524 3.75636 1.24145C3.57082 1.42766 3.42471 1.64906 3.32668 1.89252C3.22865 2.13599 3.1807 2.39657 3.18567 2.65883C3.19064 2.92109 3.24843 3.17968 3.35561 3.4193C3.4628 3.65891 3.61719 3.87466 3.80965 4.05377C4.00211 4.23288 4.22872 4.37169 4.47605 4.462C4.72338 4.5523 4.9864 4.59226 5.24952 4.57949L35.3771 4.00296L0.576536 38.6542C0.207387 39.0217 4.11652e-06 39.5203 3.73544e-06 40.0401C3.33319e-06 40.5599 0.207388 41.0584 0.576536 41.426C0.945684 41.7935 1.44636 42 1.96841 42C2.49046 42 2.99114 41.7935 3.36029 41.426L38.1609 6.77476L37.5781 36.7694C37.5838 37.279 37.7885 37.7665 38.1491 38.1283C38.5096 38.4901 38.9975 38.6979 39.5093 38.7075C40.0211 38.7171 40.5165 38.5278 40.8905 38.1798C41.2645 37.8318 41.4876 37.3524 41.5125 36.8433L42.1788 2.66326C42.1855 2.31173 42.121 1.96245 41.989 1.63635C41.8569 1.31025 41.6602 1.01402 41.4105 0.76541C41.1608 0.516796 40.8633 0.320909 40.5358 0.189471C40.2083 0.0580341 39.8575 -0.0062443 39.5045 0.000478469L5.17529 0.662014Z" fill="#0D0D0D"></path> </svg> 