<?xml version="1.0" encoding="UTF-8"?> <svg xmlns="http://www.w3.org/2000/svg" width="200" height="200" viewBox="0 0 200 200" fill="none"> <path fill-rule="evenodd" clip-rule="evenodd" d="M200 0H0V200H200V0ZM98 180C143.287 180 180 143.287 180 98C180 52.7129 143.287 16 98 16C52.7126 16 16 52.7129 16 98C16 143.287 52.7126 180 98 180Z" fill="white"></path> <path fill-rule="evenodd" clip-rule="evenodd" d="M132.557 82.3946C133.043 80.7983 132.557 79.623 130.233 79.623H122.559C120.606 79.623 119.705 80.6375 119.217 81.7572C119.217 81.7572 115.314 91.1009 109.786 97.1702C107.997 98.9302 107.184 99.4886 106.207 99.4886C105.719 99.4886 104.985 98.9302 104.985 97.331V82.3946C104.985 80.4767 104.447 79.623 102.822 79.623H90.7534C89.5343 79.623 88.8005 80.5118 88.8005 81.3567C88.8005 83.1722 91.5662 83.5932 91.8497 88.7036V99.8072C91.8497 102.243 91.4024 102.684 90.426 102.684C87.824 102.684 81.4945 93.2965 77.7378 82.5554C77.0098 80.465 76.2731 79.623 74.3114 79.623H66.6312C64.4385 79.623 64 80.6375 64 81.7572C64 83.7511 66.602 93.6561 76.1181 106.757C82.4622 115.703 91.3937 120.553 99.5299 120.553C104.409 120.553 105.012 119.477 105.012 117.62V110.858C105.012 108.704 105.473 108.274 107.02 108.274C108.16 108.274 110.11 108.835 114.665 113.147C119.869 118.261 120.726 120.553 123.655 120.553H131.329C133.522 120.553 134.621 119.477 133.99 117.349C133.294 115.232 130.809 112.159 127.514 108.514C125.725 106.438 123.041 104.201 122.225 103.082C121.088 101.646 121.413 101.006 122.225 99.7283C122.225 99.7283 131.581 86.7887 132.554 82.3946H132.557Z" fill="white"></path> </svg> 