<?xml version="1.0" encoding="UTF-8"?> <svg xmlns="http://www.w3.org/2000/svg" width="200" height="200" viewBox="0 0 200 200" fill="none"> <path fill-rule="evenodd" clip-rule="evenodd" d="M200 0H0V200H200V0ZM98 180C143.287 180 180 143.287 180 98C180 52.7129 143.287 16 98 16C52.7126 16 16 52.7129 16 98C16 143.287 52.7126 180 98 180Z" fill="white"></path> <path fill-rule="evenodd" clip-rule="evenodd" d="M89.1142 118.497C93.0133 120.12 97.3549 120.339 101.398 119.116C105.44 117.894 108.933 115.306 111.28 111.794C113.626 108.283 114.681 104.065 114.263 99.8627C113.846 95.6599 111.982 91.7325 108.991 88.7511C107.084 86.8453 104.778 85.386 102.239 84.4783C99.7008 83.5706 96.9924 83.2371 94.3094 83.5017C91.6264 83.7664 89.0354 84.6226 86.723 86.0087C84.4106 87.3949 82.4343 89.2765 80.9364 91.5182C79.4385 93.7598 78.4562 96.3057 78.0603 98.9725C77.6644 101.639 77.8647 104.361 78.6468 106.941C79.4289 109.521 80.7733 111.896 82.5833 113.894C84.3932 115.892 86.6237 117.464 89.1142 118.497ZM76.2291 81.7793C78.838 79.1704 81.9353 77.1009 85.344 75.6889C88.7528 74.277 92.4063 73.5502 96.0959 73.5502C99.7855 73.5502 103.439 74.277 106.848 75.6889C110.256 77.1009 113.354 79.1704 115.963 81.7793C118.572 84.3883 120.641 87.4855 122.053 90.8943C123.465 94.303 124.192 97.9565 124.192 101.646C124.192 105.336 123.465 108.989 122.053 112.398C120.641 115.807 118.572 118.904 115.963 121.513C110.694 126.782 103.547 129.742 96.0959 129.742C88.6444 129.742 81.4981 126.782 76.2291 121.513C70.9601 116.244 68 109.098 68 101.646C68 94.1946 70.9601 87.0483 76.2291 81.7793ZM130.423 77.7344C131.069 77.1245 131.587 76.3912 131.945 75.5777C132.303 74.7642 132.494 73.8871 132.507 72.9984C132.52 72.1098 132.355 71.2275 132.02 70.4039C131.686 69.5804 131.19 68.8322 130.562 68.2037C129.933 67.5753 129.185 67.0793 128.362 66.7452C127.538 66.411 126.656 66.2456 125.767 66.2585C124.878 66.2715 124.001 66.4626 123.188 66.8206C122.374 67.1786 121.641 67.6962 121.031 68.3427C119.845 69.6 119.196 71.2701 119.221 72.9984C119.246 74.7268 119.944 76.3772 121.166 77.5995C122.388 78.8217 124.039 79.5195 125.767 79.5447C127.495 79.5699 129.166 78.9205 130.423 77.7344Z" fill="white"></path> </svg> 