<?xml version="1.0" encoding="UTF-8"?> <svg xmlns="http://www.w3.org/2000/svg" width="379" height="304" viewBox="0 0 379 304" fill="none"> <path d="M73.0592 152L60.9093 135.777H56.5602V152H52.2801V116.655H56.5602V131.98H58.4241L72.5759 116.655H77.6844L63.3945 132.187L78.1677 152H73.0592ZM83.213 152V116.655H95.57C98.0322 116.655 100.063 117.081 101.662 117.932C103.261 118.772 104.452 119.905 105.235 121.332C106.017 122.747 106.408 124.318 106.408 126.043C106.408 127.562 106.138 128.816 105.597 129.806C105.068 130.795 104.366 131.578 103.492 132.153C102.629 132.728 101.691 133.154 100.678 133.43V133.775C101.76 133.844 102.847 134.224 103.94 134.914C105.033 135.605 105.948 136.594 106.684 137.883C107.421 139.171 107.789 140.748 107.789 142.611C107.789 144.383 107.386 145.977 106.581 147.392C105.775 148.807 104.504 149.929 102.767 150.757C101.029 151.586 98.7685 152 95.9842 152H83.213ZM87.493 148.203H95.9842C98.78 148.203 100.765 147.662 101.938 146.581C103.123 145.488 103.716 144.165 103.716 142.611C103.716 141.415 103.411 140.31 102.801 139.298C102.191 138.274 101.323 137.457 100.195 136.847C99.0677 136.226 97.733 135.915 96.1913 135.915H87.493V148.203ZM87.493 132.187H95.4319C96.7205 132.187 97.8826 131.934 98.9181 131.428C99.9651 130.922 100.794 130.208 101.403 129.288C102.025 128.368 102.335 127.286 102.335 126.043C102.335 124.49 101.794 123.173 100.713 122.091C99.6314 120.998 97.9171 120.452 95.57 120.452H87.493V132.187ZM115.785 152H111.298L124.277 116.655H128.695L141.673 152H137.186L126.624 122.247H126.348L115.785 152ZM117.442 138.193H135.529V141.99H117.442V138.193ZM146.692 152V116.655H158.635C161.408 116.655 163.675 117.155 165.435 118.156C167.207 119.146 168.519 120.486 169.37 122.178C170.221 123.869 170.647 125.756 170.647 127.838C170.647 129.921 170.221 131.813 169.37 133.516C168.53 135.219 167.23 136.577 165.47 137.589C163.709 138.59 161.454 139.091 158.704 139.091H150.144V135.294H158.566C160.465 135.294 161.989 134.966 163.14 134.31C164.29 133.654 165.124 132.768 165.642 131.652C166.171 130.525 166.436 129.253 166.436 127.838C166.436 126.423 166.171 125.157 165.642 124.041C165.124 122.925 164.284 122.051 163.122 121.418C161.96 120.774 160.419 120.452 158.497 120.452H150.972V152H146.692ZM175.123 120.452V116.655H201.632V120.452H190.517V152H186.237V120.452H175.123ZM207.751 116.655H211.962V144.475H212.308L231.637 116.655H235.779V152H231.499V124.249H231.154L211.893 152H207.751V116.655ZM243.857 152V116.655H255.8C258.573 116.655 260.84 117.155 262.6 118.156C264.372 119.146 265.684 120.486 266.535 122.178C267.386 123.869 267.812 125.756 267.812 127.838C267.812 129.921 267.386 131.813 266.535 133.516C265.695 135.219 264.395 136.577 262.635 137.589C260.874 138.59 258.619 139.091 255.869 139.091H247.309V135.294H255.731C257.63 135.294 259.154 134.966 260.305 134.31C261.455 133.654 262.289 132.768 262.807 131.652C263.336 130.525 263.601 129.253 263.601 127.838C263.601 126.423 263.336 125.157 262.807 124.041C262.289 122.925 261.449 122.051 260.287 121.418C259.125 120.774 257.584 120.452 255.662 120.452H248.138V152H243.857ZM274.221 152V116.655H278.501V132.394H297.347V116.655H301.627V152H297.347V136.191H278.501V152H274.221ZM312.885 131.497H322.964C325.496 131.497 327.63 131.911 329.367 132.74C331.116 133.568 332.439 134.736 333.337 136.243C334.246 137.75 334.7 139.528 334.7 141.576C334.7 143.624 334.246 145.43 333.337 146.995C332.439 148.56 331.116 149.785 329.367 150.671C327.63 151.557 325.496 152 322.964 152H309.71V116.655H313.99V148.272H322.964C324.575 148.272 325.939 147.95 327.055 147.306C328.182 146.65 329.034 145.81 329.609 144.786C330.196 143.75 330.489 142.657 330.489 141.507C330.489 139.816 329.839 138.36 328.539 137.141C327.239 135.909 325.381 135.294 322.964 135.294H312.885V131.497ZM342.432 116.655V152H338.152V116.655H342.432ZM350.515 116.655H354.726V144.475H355.071L374.4 116.655H378.542V152H374.262V124.249H373.917L354.657 152H350.515V116.655ZM367.911 107.819H371.708C371.708 109.682 371.064 111.207 369.775 112.392C368.486 113.577 366.737 114.17 364.528 114.17C362.354 114.17 360.622 113.577 359.334 112.392C358.057 111.207 357.418 109.682 357.418 107.819H361.215C361.215 108.716 361.462 109.504 361.957 110.183C362.463 110.862 363.32 111.201 364.528 111.201C365.737 111.201 366.599 110.862 367.117 110.183C367.646 109.504 367.911 108.716 367.911 107.819ZM52.2801 200V164.655H64.6371C67.0993 164.655 69.13 165.081 70.7293 165.932C72.3286 166.772 73.5194 167.905 74.3018 169.332C75.0842 170.747 75.4753 172.318 75.4753 174.043C75.4753 175.562 75.205 176.816 74.6642 177.806C74.1349 178.795 73.4331 179.578 72.5587 180.153C71.6958 180.728 70.7581 181.154 69.7456 181.43V181.775C70.8271 181.844 71.9144 182.224 73.0074 182.914C74.1004 183.605 75.0151 184.594 75.7515 185.883C76.4878 187.171 76.856 188.748 76.856 190.611C76.856 192.383 76.4533 193.977 75.6479 195.392C74.8425 196.807 73.5712 197.929 71.8338 198.757C70.0965 199.586 67.8356 200 65.0513 200H52.2801ZM56.5602 196.203H65.0513C67.8471 196.203 69.8319 195.662 71.0054 194.581C72.1905 193.488 72.783 192.165 72.783 190.611C72.783 189.415 72.4781 188.31 71.8683 187.298C71.2585 186.274 70.3899 185.457 69.2623 184.847C68.1348 184.226 66.8001 183.915 65.2584 183.915H56.5602V196.203ZM56.5602 180.187H64.499C65.7876 180.187 66.9497 179.934 67.9852 179.428C69.0322 178.922 69.8606 178.208 70.4704 177.288C71.0917 176.368 71.4024 175.286 71.4024 174.043C71.4024 172.49 70.8616 171.173 69.7801 170.091C68.6986 168.998 66.9842 168.452 64.6371 168.452H56.5602V180.187ZM113.225 182.327C113.225 186.055 112.552 189.277 111.206 191.992C109.86 194.707 108.013 196.801 105.666 198.274C103.319 199.747 100.638 200.483 97.6237 200.483C94.6093 200.483 91.9285 199.747 89.5813 198.274C87.2342 196.801 85.3875 194.707 84.0414 191.992C82.6952 189.277 82.0221 186.055 82.0221 182.327C82.0221 178.6 82.6952 175.378 84.0414 172.663C85.3875 169.947 87.2342 167.853 89.5813 166.381C91.9285 164.908 94.6093 164.172 97.6237 164.172C100.638 164.172 103.319 164.908 105.666 166.381C108.013 167.853 109.86 169.947 111.206 172.663C112.552 175.378 113.225 178.6 113.225 182.327ZM109.083 182.327C109.083 179.267 108.571 176.684 107.547 174.578C106.535 172.473 105.16 170.879 103.423 169.798C101.697 168.716 99.7638 168.176 97.6237 168.176C95.4837 168.176 93.545 168.716 91.8076 169.798C90.0818 170.879 88.7069 172.473 87.6829 174.578C86.6704 176.684 86.1642 179.267 86.1642 182.327C86.1642 185.388 86.6704 187.971 87.6829 190.076C88.7069 192.182 90.0818 193.775 91.8076 194.857C93.545 195.939 95.4837 196.479 97.6237 196.479C99.7638 196.479 101.697 195.939 103.423 194.857C105.16 193.775 106.535 192.182 107.547 190.076C108.571 187.971 109.083 185.388 109.083 182.327ZM146.376 164.655V200H142.096V168.452H124.285V200H120.005V164.655H146.376ZM154.523 200V164.655H166.466C169.239 164.655 171.506 165.155 173.266 166.156C175.038 167.146 176.349 168.486 177.201 170.178C178.052 171.869 178.478 173.756 178.478 175.838C178.478 177.921 178.052 179.813 177.201 181.516C176.361 183.219 175.061 184.577 173.301 185.589C171.54 186.59 169.285 187.091 166.535 187.091H157.975V183.294H166.397C168.296 183.294 169.82 182.966 170.971 182.31C172.121 181.654 172.955 180.768 173.473 179.652C174.002 178.525 174.267 177.253 174.267 175.838C174.267 174.423 174.002 173.157 173.473 172.041C172.955 170.925 172.115 170.051 170.953 169.418C169.791 168.774 168.25 168.452 166.328 168.452H158.803V200H154.523ZM214.709 182.327C214.709 186.055 214.036 189.277 212.69 191.992C211.344 194.707 209.497 196.801 207.15 198.274C204.803 199.747 202.122 200.483 199.108 200.483C196.093 200.483 193.412 199.747 191.065 198.274C188.718 196.801 186.871 194.707 185.525 191.992C184.179 189.277 183.506 186.055 183.506 182.327C183.506 178.6 184.179 175.378 185.525 172.663C186.871 169.947 188.718 167.853 191.065 166.381C193.412 164.908 196.093 164.172 199.108 164.172C202.122 164.172 204.803 164.908 207.15 166.381C209.497 167.853 211.344 169.947 212.69 172.663C214.036 175.378 214.709 178.6 214.709 182.327ZM210.567 182.327C210.567 179.267 210.055 176.684 209.031 174.578C208.019 172.473 206.644 170.879 204.906 169.798C203.181 168.716 201.248 168.176 199.108 168.176C196.968 168.176 195.029 168.716 193.292 169.798C191.566 170.879 190.191 172.473 189.167 174.578C188.154 176.684 187.648 179.267 187.648 182.327C187.648 185.388 188.154 187.971 189.167 190.076C190.191 192.182 191.566 193.775 193.292 194.857C195.029 195.939 196.968 196.479 199.108 196.479C201.248 196.479 203.181 195.939 204.906 194.857C206.644 193.775 208.019 192.182 209.031 190.076C210.055 187.971 210.567 185.388 210.567 182.327ZM249.862 175.7H245.582C245.329 174.469 244.886 173.388 244.253 172.456C243.632 171.524 242.872 170.741 241.975 170.108C241.089 169.464 240.105 168.981 239.024 168.659C237.942 168.337 236.814 168.176 235.641 168.176C233.501 168.176 231.562 168.716 229.825 169.798C228.099 170.879 226.724 172.473 225.7 174.578C224.688 176.684 224.181 179.267 224.181 182.327C224.181 185.388 224.688 187.971 225.7 190.076C226.724 192.182 228.099 193.775 229.825 194.857C231.562 195.939 233.501 196.479 235.641 196.479C236.814 196.479 237.942 196.318 239.024 195.996C240.105 195.674 241.089 195.196 241.975 194.564C242.872 193.919 243.632 193.131 244.253 192.199C244.886 191.256 245.329 190.174 245.582 188.955H249.862C249.54 190.761 248.953 192.378 248.101 193.804C247.25 195.231 246.192 196.445 244.926 197.446C243.66 198.435 242.239 199.189 240.663 199.707C239.098 200.224 237.424 200.483 235.641 200.483C232.626 200.483 229.946 199.747 227.599 198.274C225.251 196.801 223.405 194.707 222.059 191.992C220.712 189.277 220.039 186.055 220.039 182.327C220.039 178.6 220.712 175.378 222.059 172.663C223.405 169.947 225.251 167.853 227.599 166.381C229.946 164.908 232.626 164.172 235.641 164.172C237.424 164.172 239.098 164.43 240.663 164.948C242.239 165.466 243.66 166.225 244.926 167.226C246.192 168.216 247.25 169.424 248.101 170.851C248.953 172.266 249.54 173.882 249.862 175.7Z" fill="white"></path> <path fill-rule="evenodd" clip-rule="evenodd" d="M4 152C4 233.738 70.2619 300 152 300C226.955 300 288.896 244.279 298.66 172H302.696C292.905 246.495 229.168 304 152 304C68.0527 304 0 235.947 0 152C0 68.0527 68.0527 0 152 0C216.171 0 271.055 39.7661 293.352 96H289.038C266.959 42.0261 213.92 4 152 4C70.2619 4 4 70.2619 4 152Z" fill="white"></path> </svg> 