<?xml version="1.0" encoding="UTF-8"?> <svg xmlns="http://www.w3.org/2000/svg" width="282" height="77" viewBox="0 0 282 77" fill="none"><path d="M25.46 38.252C23.836 38.252 22.59 37.944 21.722 37.328C20.854 36.684 20.042 35.886 19.286 34.934L10.592 24.014C10.228 23.566 9.948 23.258 9.752 23.09C9.556 22.922 9.346 22.838 9.122 22.838C8.898 22.838 8.702 22.922 8.534 23.09C8.366 23.23 8.282 23.552 8.282 24.056V33.8C8.282 34.752 8.38 35.452 8.576 35.9C8.8 36.348 9.192 36.642 9.752 36.782C10.312 36.922 11.138 37.006 12.23 37.034V38H1.772V37.034C2.528 37.006 3.116 36.922 3.536 36.782C3.984 36.642 4.292 36.348 4.46 35.9C4.628 35.452 4.712 34.752 4.712 33.8V14.27C4.712 13.29 4.6 12.59 4.376 12.17C4.18 11.722 3.802 11.428 3.242 11.288C2.682 11.148 1.842 11.064 0.722 11.036V10.07H11.222V11.036C10.466 11.064 9.878 11.148 9.458 11.288C9.038 11.428 8.73 11.722 8.534 12.17C8.366 12.59 8.282 13.29 8.282 14.27V21.284H8.366L17.354 13.976C18.026 13.416 18.46 12.996 18.656 12.716C18.852 12.436 18.95 12.184 18.95 11.96C18.95 11.68 18.796 11.47 18.488 11.33C18.18 11.162 17.592 11.064 16.724 11.036V10.07H25.544V11.036C24.704 11.092 23.948 11.302 23.276 11.666C22.604 12.03 21.834 12.562 20.966 13.262L12.986 19.772C12.538 20.108 12.538 20.57 12.986 21.158L22.814 33.674C23.57 34.626 24.186 35.34 24.662 35.816C25.166 36.292 25.642 36.614 26.09 36.782C26.566 36.95 27.112 37.034 27.728 37.034V38C26.972 38.168 26.216 38.252 25.46 38.252ZM29.008 38V37.034C29.764 37.006 30.352 36.922 30.772 36.782C31.22 36.642 31.528 36.348 31.696 35.9C31.864 35.452 31.948 34.752 31.948 33.8V14.27C31.948 13.29 31.836 12.59 31.612 12.17C31.416 11.722 31.038 11.428 30.478 11.288C29.918 11.148 29.078 11.064 27.958 11.036V10.07H31.948C33.32 10.07 34.44 10.056 35.308 10.028C36.176 9.972 36.974 9.93 37.702 9.902C38.458 9.874 39.326 9.86 40.306 9.86C43.274 9.86 45.444 10.378 46.816 11.414C48.188 12.422 48.874 13.752 48.874 15.404C48.874 17.112 48.314 18.47 47.194 19.478C46.074 20.486 44.702 21.284 43.078 21.872V21.956C44.786 22.04 46.298 22.376 47.614 22.964C48.958 23.524 50.022 24.322 50.806 25.358C51.59 26.394 51.982 27.654 51.982 29.138C51.982 30.594 51.59 32.008 50.806 33.38C50.05 34.724 48.846 35.83 47.194 36.698C45.57 37.566 43.442 38 40.81 38H29.008ZM35.518 22.46C35.882 22.208 36.218 22.054 36.526 21.998C36.862 21.914 37.254 21.858 37.702 21.83C38.542 21.746 39.382 21.62 40.222 21.452C41.09 21.256 41.874 20.948 42.574 20.528C43.302 20.108 43.89 19.534 44.338 18.806C44.786 18.05 45.01 17.098 45.01 15.95C45.01 14.634 44.702 13.654 44.086 13.01C43.47 12.366 42.7 11.932 41.776 11.708C40.852 11.484 39.9 11.372 38.92 11.372C37.716 11.372 36.848 11.526 36.316 11.834C35.784 12.142 35.518 12.954 35.518 14.27V22.46ZM40.474 36.488C42.462 36.488 44.002 36.124 45.094 35.396C46.214 34.668 46.998 33.772 47.446 32.708C47.894 31.616 48.118 30.538 48.118 29.474C48.118 27.934 47.726 26.716 46.942 25.82C46.186 24.896 45.15 24.238 43.834 23.846C42.546 23.426 41.09 23.216 39.466 23.216C38.094 23.216 37.086 23.398 36.442 23.762C35.826 24.098 35.518 24.742 35.518 25.694V33.8C35.518 34.612 35.658 35.214 35.938 35.606C36.218 35.97 36.708 36.208 37.408 36.32C38.136 36.432 39.158 36.488 40.474 36.488ZM75.2116 33.8C75.5476 34.78 75.8696 35.494 76.1776 35.942C76.4856 36.362 76.8496 36.642 77.2696 36.782C77.7176 36.894 78.3056 36.978 79.0336 37.034V38H68.9956V37.034C69.9476 36.978 70.6476 36.88 71.0956 36.74C71.5716 36.6 71.8376 36.306 71.8936 35.858C71.9496 35.41 71.8096 34.724 71.4736 33.8L69.0796 26.576C68.9396 26.716 68.7296 26.814 68.4496 26.87C68.1696 26.898 67.8756 26.912 67.5676 26.912H62.0656C61.4496 26.912 60.9876 26.982 60.6796 27.122C60.3716 27.262 60.1056 27.64 59.8816 28.256L57.9076 33.8C57.5436 34.864 57.5436 35.662 57.9076 36.194C58.2996 36.698 59.3916 36.978 61.1836 37.034V38H52.4896V37.034C53.3856 36.978 54.0856 36.698 54.5896 36.194C55.1216 35.662 55.5836 34.864 55.9756 33.8L63.4096 13.388C63.6896 12.66 63.9556 11.946 64.2076 11.246C64.4596 10.546 64.6836 9.832 64.8796 9.104H66.9376C67.1336 9.832 67.3436 10.546 67.5676 11.246C67.8196 11.946 68.0856 12.66 68.3656 13.388L75.2116 33.8ZM67.6516 25.4C68.0156 25.4 68.2676 25.358 68.4076 25.274C68.5476 25.162 68.5476 24.938 68.4076 24.602L64.9636 14.396H64.8796L60.8476 25.526C60.9876 25.47 61.1556 25.442 61.3516 25.442C61.5476 25.414 61.7716 25.4 62.0236 25.4H67.6516ZM80.1578 38V37.034C80.9138 37.006 81.5018 36.922 81.9218 36.782C82.3698 36.642 82.6778 36.348 82.8458 35.9C83.0138 35.452 83.0978 34.752 83.0978 33.8V14.27C83.0978 13.29 82.9858 12.59 82.7618 12.17C82.5658 11.722 82.1878 11.428 81.6278 11.288C81.0678 11.148 80.2278 11.064 79.1078 11.036V10.07H83.0978C85.0018 10.07 86.5418 10.042 87.7178 9.986C88.9218 9.902 89.8878 9.86 90.6158 9.86C93.5278 9.86 95.8658 10.434 97.6298 11.582C99.3938 12.702 100.276 14.312 100.276 16.412C100.276 17.42 100.038 18.414 99.5618 19.394C99.1138 20.374 98.3858 21.256 97.3778 22.04C96.3698 22.796 95.0538 23.37 93.4298 23.762C91.8058 24.126 89.8318 24.196 87.5078 23.972V22.712C89.7478 22.908 91.4978 22.74 92.7578 22.208C94.0458 21.648 94.9558 20.878 95.4878 19.898C96.0198 18.89 96.2858 17.812 96.2858 16.664C96.2858 15.236 95.9638 14.144 95.3198 13.388C94.7038 12.604 93.8778 12.072 92.8418 11.792C91.8338 11.512 90.7418 11.372 89.5658 11.372C88.6138 11.372 87.8858 11.54 87.3818 11.876C86.9058 12.212 86.6678 13.01 86.6678 14.27V33.8C86.6678 34.752 86.7658 35.452 86.9618 35.9C87.1858 36.348 87.6058 36.642 88.2218 36.782C88.8658 36.922 89.8038 37.006 91.0358 37.034V38H80.1578ZM101.791 10.07H124.429V16.622H123.463C123.407 15.642 123.253 14.774 123.001 14.018C122.749 13.262 122.273 12.674 121.573 12.254C120.873 11.806 119.809 11.582 118.381 11.582H114.895V33.8C114.895 34.752 114.993 35.452 115.189 35.9C115.413 36.348 115.805 36.642 116.365 36.782C116.953 36.922 117.793 37.006 118.885 37.034V38H108.385V37.034C109.141 37.006 109.729 36.922 110.149 36.782C110.597 36.642 110.905 36.348 111.073 35.9C111.241 35.452 111.325 34.752 111.325 33.8V11.582H107.797C106.397 11.582 105.347 11.806 104.647 12.254C103.947 12.674 103.471 13.262 103.219 14.018C102.967 14.774 102.813 15.642 102.757 16.622H101.791V10.07ZM127.247 38V37.034C128.003 37.006 128.591 36.922 129.011 36.782C129.459 36.642 129.767 36.348 129.935 35.9C130.103 35.452 130.187 34.752 130.187 33.8V14.27C130.187 13.29 130.075 12.59 129.851 12.17C129.655 11.722 129.277 11.428 128.717 11.288C128.157 11.148 127.317 11.064 126.197 11.036V10.07H136.697V11.036C135.941 11.064 135.353 11.148 134.933 11.288C134.513 11.428 134.205 11.722 134.009 12.17C133.841 12.59 133.757 13.29 133.757 14.27V33.548L149.717 10.07H155.387V11.036C154.631 11.064 154.043 11.148 153.623 11.288C153.203 11.428 152.895 11.722 152.699 12.17C152.531 12.59 152.447 13.29 152.447 14.27V33.8C152.447 34.752 152.545 35.452 152.741 35.9C152.937 36.348 153.315 36.642 153.875 36.782C154.463 36.922 155.303 37.006 156.395 37.034V38H145.937V37.034C146.693 37.006 147.281 36.922 147.701 36.782C148.149 36.642 148.457 36.348 148.625 35.9C148.793 35.452 148.877 34.752 148.877 33.8V14.564L132.917 38H127.247ZM159.2 38V37.034C159.956 37.006 160.544 36.922 160.964 36.782C161.412 36.642 161.72 36.348 161.888 35.9C162.056 35.452 162.14 34.752 162.14 33.8V14.27C162.14 13.29 162.028 12.59 161.804 12.17C161.608 11.722 161.23 11.428 160.67 11.288C160.11 11.148 159.27 11.064 158.15 11.036V10.07H162.14C164.044 10.07 165.584 10.042 166.76 9.986C167.964 9.902 168.93 9.86 169.658 9.86C172.57 9.86 174.908 10.434 176.672 11.582C178.436 12.702 179.318 14.312 179.318 16.412C179.318 17.42 179.08 18.414 178.604 19.394C178.156 20.374 177.428 21.256 176.42 22.04C175.412 22.796 174.096 23.37 172.472 23.762C170.848 24.126 168.874 24.196 166.55 23.972V22.712C168.79 22.908 170.54 22.74 171.8 22.208C173.088 21.648 173.998 20.878 174.53 19.898C175.062 18.89 175.328 17.812 175.328 16.664C175.328 15.236 175.006 14.144 174.362 13.388C173.746 12.604 172.92 12.072 171.884 11.792C170.876 11.512 169.784 11.372 168.608 11.372C167.656 11.372 166.928 11.54 166.424 11.876C165.948 12.212 165.71 13.01 165.71 14.27V33.8C165.71 34.752 165.808 35.452 166.004 35.9C166.228 36.348 166.648 36.642 167.264 36.782C167.908 36.922 168.846 37.006 170.078 37.034V38H159.2ZM181.883 38V37.034C182.639 37.006 183.227 36.922 183.647 36.782C184.095 36.642 184.403 36.348 184.571 35.9C184.739 35.452 184.823 34.752 184.823 33.8V14.27C184.823 13.29 184.711 12.59 184.487 12.17C184.291 11.722 183.913 11.428 183.353 11.288C182.793 11.148 181.953 11.064 180.833 11.036V10.07H191.333V11.036C190.577 11.064 189.989 11.148 189.569 11.288C189.149 11.428 188.841 11.722 188.645 12.17C188.477 12.59 188.393 13.29 188.393 14.27V21.62C188.617 21.452 188.883 21.34 189.191 21.284C189.527 21.228 189.919 21.2 190.367 21.2H201.455C202.211 21.2 202.743 21.074 203.051 20.822C203.359 20.57 203.513 20.066 203.513 19.31V14.27C203.513 13.29 203.401 12.59 203.177 12.17C202.981 11.722 202.603 11.428 202.043 11.288C201.483 11.148 200.643 11.064 199.523 11.036V10.07H210.023V11.036C209.267 11.064 208.679 11.148 208.259 11.288C207.839 11.428 207.531 11.722 207.335 12.17C207.167 12.59 207.083 13.29 207.083 14.27V33.8C207.083 34.752 207.181 35.452 207.377 35.9C207.573 36.348 207.951 36.642 208.511 36.782C209.099 36.922 209.939 37.006 211.031 37.034V38H200.573V37.034C201.329 37.006 201.917 36.922 202.337 36.782C202.785 36.642 203.093 36.348 203.261 35.9C203.429 35.452 203.513 34.752 203.513 33.8V22.25C203.289 22.446 203.009 22.572 202.673 22.628C202.337 22.684 201.959 22.712 201.539 22.712H190.451C189.695 22.712 189.163 22.838 188.855 23.09C188.547 23.342 188.393 23.832 188.393 24.56V33.8C188.393 34.752 188.491 35.452 188.687 35.9C188.911 36.348 189.303 36.642 189.863 36.782C190.423 36.922 191.249 37.006 192.341 37.034V38H181.883ZM220.346 21.2H223.706C227.514 21.2 230.468 21.844 232.568 23.132C234.696 24.392 235.76 26.296 235.76 28.844C235.76 30.524 235.354 32.064 234.542 33.464C233.758 34.836 232.554 35.942 230.93 36.782C229.334 37.594 227.29 38 224.798 38H213.836V37.034C214.592 37.006 215.18 36.922 215.6 36.782C216.048 36.642 216.356 36.348 216.524 35.9C216.692 35.452 216.776 34.752 216.776 33.8V14.27C216.776 13.29 216.664 12.59 216.44 12.17C216.244 11.722 215.866 11.428 215.306 11.288C214.746 11.148 213.906 11.064 212.786 11.036V10.07H223.286V11.036C222.53 11.064 221.942 11.148 221.522 11.288C221.102 11.428 220.794 11.722 220.598 12.17C220.43 12.59 220.346 13.29 220.346 14.27V21.2ZM224.462 36.488C226.31 36.488 227.78 36.138 228.872 35.438C229.964 34.71 230.734 33.8 231.182 32.708C231.658 31.588 231.896 30.426 231.896 29.222C231.896 27.542 231.49 26.226 230.678 25.274C229.894 24.322 228.858 23.65 227.57 23.258C226.31 22.866 224.938 22.67 223.454 22.67H220.346V33.8C220.346 35.004 220.64 35.76 221.228 36.068C221.844 36.348 222.922 36.488 224.462 36.488ZM238.91 38V37.034C239.666 37.006 240.254 36.922 240.674 36.782C241.122 36.642 241.43 36.348 241.598 35.9C241.766 35.452 241.85 34.752 241.85 33.8V14.27C241.85 13.29 241.738 12.59 241.514 12.17C241.318 11.722 240.94 11.428 240.38 11.288C239.82 11.148 238.98 11.064 237.86 11.036V10.07H248.36V11.036C247.604 11.064 247.016 11.148 246.596 11.288C246.176 11.428 245.868 11.722 245.672 12.17C245.504 12.59 245.42 13.29 245.42 14.27V33.8C245.42 34.752 245.518 35.452 245.714 35.9C245.938 36.348 246.33 36.642 246.89 36.782C247.478 36.922 248.318 37.006 249.41 37.034V38H238.91ZM252.228 38V37.034C252.984 37.006 253.572 36.922 253.992 36.782C254.44 36.642 254.748 36.348 254.916 35.9C255.084 35.452 255.168 34.752 255.168 33.8V14.27C255.168 13.29 255.056 12.59 254.832 12.17C254.636 11.722 254.258 11.428 253.698 11.288C253.138 11.148 252.298 11.064 251.178 11.036V10.07H261.678V11.036C260.922 11.064 260.334 11.148 259.914 11.288C259.494 11.428 259.186 11.722 258.99 12.17C258.822 12.59 258.738 13.29 258.738 14.27V33.548L274.698 10.07H280.368V11.036C279.612 11.064 279.024 11.148 278.604 11.288C278.184 11.428 277.876 11.722 277.68 12.17C277.512 12.59 277.428 13.29 277.428 14.27V33.8C277.428 34.752 277.526 35.452 277.722 35.9C277.918 36.348 278.296 36.642 278.856 36.782C279.444 36.922 280.284 37.006 281.376 37.034V38H270.918V37.034C271.674 37.006 272.262 36.922 272.682 36.782C273.13 36.642 273.438 36.348 273.606 35.9C273.774 35.452 273.858 34.752 273.858 33.8V14.564L257.898 38H252.228ZM271.758 1.46L272.556 1.838C272.192 3.826 271.394 5.31 270.162 6.29C268.93 7.242 267.614 7.718 266.214 7.718C265.01 7.718 263.918 7.326 262.938 6.542C261.986 5.758 261.398 4.344 261.174 2.3C261.678 2.076 262.182 1.922 262.686 1.838C263.19 1.754 263.75 1.698 264.366 1.67C264.422 3.014 264.702 3.98 265.206 4.568C265.738 5.128 266.452 5.408 267.348 5.408C268.328 5.408 269.168 5.072 269.868 4.4C270.596 3.728 271.226 2.748 271.758 1.46ZM1.772 76V75.034C2.528 75.006 3.116 74.922 3.536 74.782C3.984 74.642 4.292 74.348 4.46 73.9C4.628 73.452 4.712 72.752 4.712 71.8V52.27C4.712 51.29 4.6 50.59 4.376 50.17C4.18 49.722 3.802 49.428 3.242 49.288C2.682 49.148 1.842 49.064 0.722 49.036V48.07H4.712C6.084 48.07 7.204 48.056 8.072 48.028C8.94 47.972 9.738 47.93 10.466 47.902C11.222 47.874 12.09 47.86 13.07 47.86C16.038 47.86 18.208 48.378 19.58 49.414C20.952 50.422 21.638 51.752 21.638 53.404C21.638 55.112 21.078 56.47 19.958 57.478C18.838 58.486 17.466 59.284 15.842 59.872V59.956C17.55 60.04 19.062 60.376 20.378 60.964C21.722 61.524 22.786 62.322 23.57 63.358C24.354 64.394 24.746 65.654 24.746 67.138C24.746 68.594 24.354 70.008 23.57 71.38C22.814 72.724 21.61 73.83 19.958 74.698C18.334 75.566 16.206 76 13.574 76H1.772ZM8.282 60.46C8.646 60.208 8.982 60.054 9.29 59.998C9.626 59.914 10.018 59.858 10.466 59.83C11.306 59.746 12.146 59.62 12.986 59.452C13.854 59.256 14.638 58.948 15.338 58.528C16.066 58.108 16.654 57.534 17.102 56.806C17.55 56.05 17.774 55.098 17.774 53.95C17.774 52.634 17.466 51.654 16.85 51.01C16.234 50.366 15.464 49.932 14.54 49.708C13.616 49.484 12.664 49.372 11.684 49.372C10.48 49.372 9.612 49.526 9.08 49.834C8.548 50.142 8.282 50.954 8.282 52.27V60.46ZM13.238 74.488C15.226 74.488 16.766 74.124 17.858 73.396C18.978 72.668 19.762 71.772 20.21 70.708C20.658 69.616 20.882 68.538 20.882 67.474C20.882 65.934 20.49 64.716 19.706 63.82C18.95 62.896 17.914 62.238 16.598 61.846C15.31 61.426 13.854 61.216 12.23 61.216C10.858 61.216 9.85 61.398 9.206 61.762C8.59 62.098 8.282 62.742 8.282 63.694V71.8C8.282 72.612 8.422 73.214 8.702 73.606C8.982 73.97 9.472 74.208 10.172 74.32C10.9 74.432 11.922 74.488 13.238 74.488ZM41.7596 47.44C43.6636 47.44 45.4556 47.776 47.1356 48.448C48.8156 49.12 50.3136 50.1 51.6296 51.388C52.9456 52.648 53.9676 54.174 54.6956 55.966C55.4516 57.758 55.8296 59.76 55.8296 61.972C55.8296 64.184 55.4516 66.186 54.6956 67.978C53.9676 69.77 52.9456 71.31 51.6296 72.598C50.3416 73.886 48.8436 74.88 47.1356 75.58C45.4276 76.28 43.6216 76.63 41.7176 76.63C39.8416 76.63 38.0496 76.294 36.3416 75.622C34.6616 74.95 33.1636 73.984 31.8476 72.724C30.5596 71.436 29.5376 69.896 28.7816 68.104C28.0536 66.312 27.6896 64.31 27.6896 62.098C27.6896 59.886 28.0536 57.884 28.7816 56.092C29.5376 54.3 30.5596 52.76 31.8476 51.472C33.1636 50.184 34.6616 49.19 36.3416 48.49C38.0496 47.79 39.8556 47.44 41.7596 47.44ZM42.3476 74.95C44.0276 74.95 45.5676 74.488 46.9676 73.564C48.3956 72.64 49.5436 71.282 50.4116 69.49C51.2796 67.67 51.7136 65.43 51.7136 62.77C51.7136 59.858 51.2096 57.394 50.2016 55.378C49.1936 53.334 47.8916 51.78 46.2956 50.716C44.6996 49.652 42.9916 49.12 41.1716 49.12C39.4916 49.12 37.9376 49.582 36.5096 50.506C35.0816 51.43 33.9336 52.802 33.0656 54.622C32.1976 56.414 31.7636 58.64 31.7636 61.3C31.7636 64.212 32.2676 66.69 33.2756 68.734C34.2836 70.75 35.5996 72.29 37.2236 73.354C38.8476 74.418 40.5556 74.95 42.3476 74.95ZM83.3833 71.8C83.3833 72.752 83.4813 73.452 83.6772 73.9C83.8733 74.348 84.2513 74.642 84.8113 74.782C85.3993 74.922 86.2393 75.006 87.3313 75.034V76H76.8733V75.034C77.6293 75.006 78.2172 74.922 78.6372 74.782C79.0853 74.642 79.3933 74.348 79.5613 73.9C79.7292 73.452 79.8132 72.752 79.8132 71.8V52.27C79.8132 51.094 79.5892 50.352 79.1413 50.044C78.7213 49.736 77.8953 49.582 76.6632 49.582H68.0533C67.3532 49.582 66.8212 49.736 66.4572 50.044C66.1212 50.352 65.9533 51.094 65.9533 52.27V71.8C65.9533 72.752 66.0513 73.452 66.2473 73.9C66.4713 74.348 66.8633 74.642 67.4232 74.782C67.9833 74.922 68.8093 75.006 69.9013 75.034V76H59.4432V75.034C60.1992 75.006 60.7872 74.922 61.2072 74.782C61.6552 74.642 61.9632 74.348 62.1312 73.9C62.2992 73.452 62.3832 72.752 62.3832 71.8V52.27C62.3832 51.29 62.2712 50.59 62.0472 50.17C61.8512 49.722 61.4732 49.428 60.9132 49.288C60.3532 49.148 59.5132 49.064 58.3932 49.036V48.07H86.3233V49.036C85.5673 49.064 84.9793 49.148 84.5593 49.288C84.1393 49.428 83.8313 49.722 83.6353 50.17C83.4673 50.59 83.3833 51.29 83.3833 52.27V71.8ZM90.1656 76V75.034C90.9216 75.006 91.5096 74.922 91.9296 74.782C92.3776 74.642 92.6856 74.348 92.8536 73.9C93.0216 73.452 93.1056 72.752 93.1056 71.8V52.27C93.1056 51.29 92.9936 50.59 92.7696 50.17C92.5736 49.722 92.1956 49.428 91.6356 49.288C91.0756 49.148 90.2356 49.064 89.1156 49.036V48.07H93.1056C95.0096 48.07 96.5496 48.042 97.7256 47.986C98.9296 47.902 99.8956 47.86 100.624 47.86C103.536 47.86 105.874 48.434 107.638 49.582C109.402 50.702 110.284 52.312 110.284 54.412C110.284 55.42 110.046 56.414 109.57 57.394C109.122 58.374 108.394 59.256 107.386 60.04C106.378 60.796 105.062 61.37 103.438 61.762C101.814 62.126 99.8396 62.196 97.5156 61.972V60.712C99.7556 60.908 101.506 60.74 102.766 60.208C104.054 59.648 104.964 58.878 105.496 57.898C106.028 56.89 106.294 55.812 106.294 54.664C106.294 53.236 105.972 52.144 105.328 51.388C104.712 50.604 103.886 50.072 102.85 49.792C101.842 49.512 100.75 49.372 99.5736 49.372C98.6216 49.372 97.8936 49.54 97.3896 49.876C96.9136 50.212 96.6756 51.01 96.6756 52.27V71.8C96.6756 72.752 96.7736 73.452 96.9696 73.9C97.1936 74.348 97.6136 74.642 98.2296 74.782C98.8736 74.922 99.8116 75.006 101.044 75.034V76H90.1656ZM126.667 47.44C128.571 47.44 130.363 47.776 132.043 48.448C133.723 49.12 135.221 50.1 136.537 51.388C137.853 52.648 138.875 54.174 139.603 55.966C140.359 57.758 140.737 59.76 140.737 61.972C140.737 64.184 140.359 66.186 139.603 67.978C138.875 69.77 137.853 71.31 136.537 72.598C135.249 73.886 133.751 74.88 132.043 75.58C130.335 76.28 128.529 76.63 126.625 76.63C124.749 76.63 122.957 76.294 121.249 75.622C119.569 74.95 118.071 73.984 116.755 72.724C115.467 71.436 114.445 69.896 113.689 68.104C112.961 66.312 112.597 64.31 112.597 62.098C112.597 59.886 112.961 57.884 113.689 56.092C114.445 54.3 115.467 52.76 116.755 51.472C118.071 50.184 119.569 49.19 121.249 48.49C122.957 47.79 124.763 47.44 126.667 47.44ZM127.255 74.95C128.935 74.95 130.475 74.488 131.875 73.564C133.303 72.64 134.451 71.282 135.319 69.49C136.187 67.67 136.621 65.43 136.621 62.77C136.621 59.858 136.117 57.394 135.109 55.378C134.101 53.334 132.799 51.78 131.203 50.716C129.607 49.652 127.899 49.12 126.079 49.12C124.399 49.12 122.845 49.582 121.417 50.506C119.989 51.43 118.841 52.802 117.973 54.622C117.105 56.414 116.671 58.64 116.671 61.3C116.671 64.212 117.175 66.69 118.183 68.734C119.191 70.75 120.507 72.29 122.131 73.354C123.755 74.418 125.463 74.95 127.255 74.95ZM158.631 76.63C156.587 76.63 154.683 76.294 152.919 75.622C151.155 74.922 149.601 73.942 148.257 72.682C146.941 71.394 145.919 69.868 145.191 68.104C144.463 66.34 144.099 64.394 144.099 62.266C144.099 59.97 144.519 57.912 145.359 56.092C146.199 54.244 147.347 52.676 148.803 51.388C150.259 50.1 151.939 49.12 153.843 48.448C155.747 47.776 157.763 47.44 159.891 47.44C160.927 47.44 161.977 47.51 163.041 47.65C164.133 47.79 165.141 47.986 166.065 48.238C167.017 48.462 167.801 48.714 168.417 48.994V55.63H167.451C167.339 53.978 166.877 52.69 166.065 51.766C165.253 50.814 164.245 50.142 163.041 49.75C161.865 49.33 160.633 49.12 159.345 49.12C157.357 49.12 155.509 49.568 153.801 50.464C152.093 51.36 150.721 52.732 149.685 54.58C148.677 56.4 148.173 58.738 148.173 61.594C148.173 64.31 148.649 66.676 149.601 68.692C150.553 70.68 151.813 72.22 153.381 73.312C154.977 74.404 156.741 74.95 158.673 74.95C160.437 74.95 161.991 74.544 163.335 73.732C164.707 72.892 165.827 71.842 166.695 70.582C167.563 69.322 168.137 68.048 168.417 66.76H169.383L169.131 71.674C168.067 72.99 166.695 74.152 165.015 75.16C163.335 76.14 161.207 76.63 158.631 76.63Z" fill="#3E3C38"></path></svg> 