<?xml version="1.0" encoding="UTF-8"?> <svg xmlns="http://www.w3.org/2000/svg" width="43" height="42" viewBox="0 0 43 42" fill="none"> <path d="M5.17529 0.66189C4.91188 0.659018 4.65055 0.708821 4.40682 0.808352C4.16309 0.907884 3.9419 1.05511 3.75636 1.24132C3.57083 1.42753 3.42471 1.64893 3.32668 1.89239C3.22866 2.13586 3.18071 2.39644 3.18568 2.6587C3.19065 2.92096 3.24844 3.17955 3.35562 3.41916C3.4628 3.65878 3.6172 3.87452 3.80966 4.05363C4.00212 4.23274 4.22873 4.37156 4.47605 4.46186C4.72338 4.55217 4.9864 4.59212 5.24952 4.57936L35.377 4.00282L0.576549 38.6539C0.207402 39.0215 1.94132e-05 39.52 1.90321e-05 40.0398C1.86298e-05 40.5597 0.207403 41.0582 0.57655 41.4257C0.945697 41.7933 1.44637 41.9998 1.96842 41.9998C2.49047 41.9998 2.99114 41.7933 3.36029 41.4257L38.1608 6.77462L37.5781 36.7691C37.5837 37.2788 37.7884 37.7662 38.149 38.1281C38.5095 38.4899 38.9974 38.6976 39.5092 38.7073C40.021 38.7169 40.5164 38.5276 40.8904 38.1796C41.2644 37.8315 41.4875 37.3521 41.5124 36.843L42.1787 2.66313C42.1854 2.3116 42.1209 1.96233 41.9888 1.63623C41.8568 1.31012 41.6601 1.0139 41.4104 0.765285C41.1607 0.516672 40.8632 0.320785 40.5357 0.189348C40.2082 0.0579116 39.8574 -0.00636665 39.5044 0.000356094L5.17529 0.66189Z" fill="white"></path> </svg> 