<?xml version="1.0" encoding="UTF-8"?> <svg xmlns="http://www.w3.org/2000/svg" width="56" height="48" viewBox="0 0 56 48" fill="none"><path d="M30.955 12.3528C30.955 9.0064 32.1289 6.11048 34.4767 3.66504C36.8246 1.2196 39.6667 -0.00312184 43.0032 -0.00312155C46.0924 -0.00312128 48.8728 1.2196 51.3442 3.66504C53.6921 6.11048 55.1131 8.94205 55.6074 12.1597C56.4724 18.5951 55.4221 24.9661 52.4563 31.2728C49.3671 37.7082 44.9185 42.7278 39.1107 46.3316C37.2571 47.6186 35.7124 47.6186 34.4767 46.3316C33.1175 45.1732 33.3028 43.9505 35.0328 42.6634C37.1335 40.8615 39.1107 38.6735 40.9642 36.0993C42.6942 33.5252 43.8681 30.5005 44.486 27.0254C44.8567 25.0948 44.2389 24.1295 42.6324 24.1295C39.296 24.1295 36.5157 22.9712 34.2914 20.6544C32.0671 18.3377 30.955 15.5705 30.955 12.3528ZM0.000388339 12.3528C0.000388632 9.0064 1.17432 6.11048 3.52217 3.66504C5.87002 1.2196 8.71216 -0.00312455 12.0486 -0.00312426C15.1379 -0.00312399 17.9182 1.2196 20.3896 3.66504C22.7375 6.11048 24.1586 8.94204 24.6528 12.1597C25.5178 18.5951 24.4675 24.9661 21.5018 31.2728C18.4125 37.7082 13.9639 42.7278 8.15608 46.3316C6.30252 47.6186 4.75788 47.6186 3.52216 46.3316C2.16288 45.1732 2.34824 43.9505 4.07824 42.6634C6.17894 40.8615 8.15608 38.6735 10.0097 36.0993C11.7396 33.5252 12.9136 30.5005 13.5314 27.0254C13.9021 25.0948 13.2843 24.1295 11.6779 24.1295C8.34144 24.1295 5.56109 22.9712 3.33681 20.6544C1.11253 18.3377 0.000388058 15.5705 0.000388339 12.3528Z" fill="#B9EA00"></path></svg> 