<?xml version="1.0" encoding="UTF-8"?> <svg xmlns="http://www.w3.org/2000/svg" width="500" height="500" viewBox="0 0 500 500" fill="none"><g clip-path="url(#clip0_878_6664)"><mask id="mask0_878_6664" style="mask-type:luminance" maskUnits="userSpaceOnUse" x="0" y="0" width="500" height="500"><path d="M500 0H0V500H500V0Z" fill="white"></path></mask><g mask="url(#mask0_878_6664)"><path d="M139.977 155.948C128.926 140.737 132.303 119.415 147.513 108.364C162.723 97.3134 184.045 100.691 195.096 115.901C206.147 131.111 202.77 152.433 187.56 163.484C172.35 174.535 151.027 171.158 139.977 155.948Z" fill="#B9E900"></path><path d="M105.374 238.825C87.4929 233.015 77.6922 213.78 83.502 195.899C89.3119 178.018 108.547 168.217 126.428 174.027C144.309 179.837 154.109 199.072 148.299 216.953C142.49 234.834 123.255 244.634 105.374 238.825Z" fill="#B9E900"></path><path d="M126.428 325.964C108.547 331.774 89.3121 321.974 83.5023 304.093C77.6925 286.212 87.4932 266.977 105.374 261.167C123.255 255.357 142.49 265.158 148.3 283.039C154.11 300.92 144.309 320.155 126.428 325.964Z" fill="#B9E900"></path><path d="M194.977 384.552C183.926 399.763 162.603 403.14 147.393 392.089C132.183 381.038 128.806 359.716 139.857 344.505C150.908 329.295 172.23 325.918 187.44 336.969C202.65 348.02 206.027 369.342 194.977 384.552Z" fill="#B9E900"></path><path d="M284.066 403.574C284.066 422.375 268.801 437.64 250 437.64C231.199 437.64 215.934 422.375 215.934 403.574C215.934 384.773 231.199 369.508 250 369.508C268.801 369.508 284.066 384.773 284.066 403.574Z" fill="#B9E900"></path><path d="M360.579 344.56C371.63 359.77 368.253 381.092 353.043 392.143C337.832 403.194 316.51 399.817 305.459 384.607C294.408 369.397 297.785 348.074 312.996 337.023C328.206 325.973 349.528 329.35 360.579 344.56Z" fill="#B9E900"></path><path d="M394.626 261.168C412.507 266.977 422.308 286.212 416.498 304.093C410.688 321.974 391.453 331.775 373.572 325.965C355.691 320.155 345.891 300.92 351.701 283.039C357.51 265.158 376.745 255.358 394.626 261.168Z" fill="#B9E900"></path><path d="M373.572 174.028C391.453 168.218 410.688 178.019 416.498 195.899C422.308 213.78 412.507 233.015 394.626 238.825C376.745 244.635 357.51 234.834 351.7 216.953C345.89 199.073 355.691 179.838 373.572 174.028Z" fill="#B9E900"></path><path d="M305.318 115.901C316.369 100.691 337.691 97.3135 352.901 108.364C368.112 119.415 371.489 140.738 360.438 155.948C349.387 171.158 328.065 174.535 312.854 163.484C297.644 152.433 294.267 131.111 305.318 115.901Z" fill="#B9E900"></path><path d="M215.934 108.996C215.934 90.1955 231.199 74.9305 250 74.9305C268.801 74.9305 284.066 90.1955 284.066 108.996C284.066 127.798 268.801 143.062 250 143.062C231.199 143.062 215.934 127.798 215.934 108.996Z" fill="#B9E900"></path></g></g><defs><clipPath id="clip0_878_6664"><rect width="500" height="500" fill="white"></rect></clipPath></defs></svg> 