<?xml version="1.0" encoding="UTF-8"?> <svg xmlns="http://www.w3.org/2000/svg" width="36" height="36" viewBox="0 0 36 36" fill="none"><path fill-rule="evenodd" clip-rule="evenodd" d="M29.1007 10.7567C29.6375 10.7567 30.2592 10.773 31.022 10.8055C31.7848 10.8217 32.1802 10.8542 32.2368 10.8542L33.1974 10.7892C33.8472 10.773 34.3559 10.7567 34.723 10.7567C35.0621 10.7567 35.26 10.8217 35.26 10.9679C35.26 11.1304 35.1187 11.1954 34.8643 11.1954C34.2428 11.1954 33.7342 11.3254 33.3387 11.5854C32.8302 11.9429 32.2368 12.934 31.5871 14.5752C31.4457 14.9327 30.2592 17.8087 28.0271 23.2033C25.7668 28.6304 24.3825 31.8313 23.9304 32.8389C23.8457 33.0339 23.761 33.2288 23.648 33.4238C23.563 33.6351 23.4783 33.7976 23.45 33.9276C23.3936 34.0412 23.337 34.1875 23.2523 34.3175C23.1959 34.4476 23.1393 34.5612 23.111 34.6424C23.0546 34.7236 23.0263 34.8051 22.9699 34.8863C22.9133 34.9675 22.9133 35.0161 22.8849 35.0649C22.8568 35.1138 22.8285 35.1462 22.8002 35.1786C22.7721 35.2112 22.7438 35.2274 22.7155 35.2436C22.6872 35.2436 22.6308 35.26 22.6025 35.26C22.4331 35.26 22.2918 35.1462 22.1504 34.9025C22.0091 34.675 21.7831 34.1224 21.4442 33.2776L17.6283 23.7362C17.0472 23.5341 16.3611 23.134 15.5957 22.5209C14.6916 21.8059 13.1095 20.2298 10.821 17.8249C8.56071 15.4201 6.66774 13.324 5.17032 11.5529V14.8352C5.17032 18.5399 5.22683 20.8472 5.33985 21.7246C5.39633 22.2608 5.50937 22.6671 5.67888 22.9434C5.82016 23.2357 6.13094 23.4146 6.58299 23.4796C7.1763 23.5608 7.6001 23.6096 7.85436 23.6096C8.10866 23.6096 8.22166 23.6744 8.22166 23.8371C8.22166 23.9833 8.0804 24.0646 7.76961 24.0646C7.23281 24.0646 6.66774 24.0483 6.04617 24.0483C5.4246 24.0319 4.91606 24.0157 4.49224 23.9995C4.09672 23.9669 3.87071 23.9669 3.84242 23.9669C3.81418 23.9669 3.61641 23.9669 3.24911 23.9833C2.88182 23.9833 2.45804 23.9995 1.97772 24.0319C1.49742 24.0483 1.13012 24.0646 0.847596 24.0646C0.508555 24.0646 0.339042 23.9833 0.339042 23.8371C0.339042 23.6744 0.452053 23.6096 0.706337 23.6096C0.988863 23.6096 1.24315 23.577 1.52569 23.512C2.00599 23.4146 2.31675 22.8134 2.48628 21.7246C2.57105 20.8472 2.62754 18.5399 2.62754 14.8352V9.22934C2.62754 5.32962 2.62754 3.03851 2.57105 2.35608C2.51452 1.31616 2.14723 0.731204 1.49742 0.56871C1.18665 0.487469 0.791094 0.438728 0.339042 0.438728C0.113011 0.438728 0 0.373715 0 0.259985C0 0.0812399 0.169513 0 0.508555 0C0.81935 0 1.24315 4.58462e-09 1.77996 0.0162494C2.31675 0.0162494 2.76882 0.0324988 3.1926 0.0487409C3.58816 0.0812399 3.81418 0.0975047 3.84242 0.0975047C3.87071 0.0975047 4.06846 0.0812399 4.46399 0.0487409C4.85953 0.0324988 5.31158 0.0162494 5.79189 0.0162494C6.30047 4.58462e-09 6.69599 0 6.95029 0C7.2893 0 7.45884 0.0812399 7.45884 0.211221C7.45884 0.341224 7.34583 0.422479 7.11979 0.438728L6.41347 0.503697C6.01793 0.552461 5.73538 0.714961 5.56588 1.00744C5.39633 1.31616 5.28334 1.75487 5.25509 2.35608C5.19858 3.03851 5.17032 5.32962 5.17032 9.22934V11.2604C5.48113 10.9842 6.07444 10.3992 6.95029 9.45679C7.82614 8.54687 8.84325 7.47446 10.0016 6.2558C11.16 5.03715 11.9793 4.19219 12.4314 3.75347C13.3355 2.84355 13.9005 2.2261 14.1266 1.88487C14.3526 1.55988 14.4656 1.29991 14.4656 1.08868C14.4656 0.779953 14.3243 0.584959 14.0418 0.47122C13.8723 0.389987 13.7593 0.292476 13.7593 0.194972C13.7593 0.0649903 13.9288 0 14.2396 0C14.5504 0 14.8329 0.0162494 15.1437 0.0487409C15.4262 0.0812399 15.7652 0.0975047 16.1608 0.0975047C16.4998 0.0975047 17.1214 0.0812399 18.0255 0.0487409C18.9014 0.0162494 19.3817 0 19.5229 0C19.8902 0 20.0597 0.0812399 20.0597 0.211221C20.0597 0.341224 19.9467 0.422479 19.7207 0.438728C19.0709 0.503697 18.5341 0.6337 18.082 0.828694C17.3192 1.12117 16.2173 1.98237 14.7764 3.37976C10.9057 7.10072 8.47595 9.50557 7.5436 10.5942C8.5042 11.6504 10.1146 13.324 12.3184 15.5826C13.777 17.0883 14.9262 18.2523 15.766 19.0793L13.6462 13.779C13.3072 12.934 12.9964 12.3491 12.7139 12.0404C12.4031 11.7317 11.9511 11.5042 11.3578 11.3254C11.047 11.2442 10.6514 11.1954 10.1429 11.1954C9.97336 11.1954 9.88861 11.1304 9.88861 10.9679C9.88861 10.8217 10.1711 10.7567 10.7362 10.7567C11.3295 10.7567 12.0641 10.773 12.9682 10.8055C13.8441 10.8217 14.2961 10.8542 14.3526 10.8542C14.4091 10.8542 14.7764 10.8217 15.4827 10.8055C16.1608 10.773 16.7541 10.7567 17.2344 10.7567C17.8277 10.7567 18.1103 10.8217 18.1103 10.9679C18.1103 11.1304 17.9973 11.1954 17.7995 11.1954C17.2344 11.1954 16.8106 11.2604 16.5846 11.3579C16.3021 11.4879 16.1608 11.6991 16.1608 11.9916C16.1608 12.2679 16.3868 12.9503 16.8106 14.039L20.1628 22.7861C20.7883 23.1456 21.4168 23.3877 22.0657 23.512C22.3482 23.577 22.6591 23.6096 22.9982 23.6096C23.2806 23.6096 23.4219 23.6744 23.4219 23.8371C23.4219 23.9833 23.2806 24.0646 22.9699 24.0646H20.6527L23.2806 30.9215C24.1847 28.8254 25.4843 25.6568 27.123 21.3997C28.7335 17.1425 29.7224 14.4289 30.0895 13.259C30.2875 12.6903 30.3722 12.2841 30.3722 12.0566C30.3722 11.7154 30.2592 11.4717 29.9765 11.3254C29.7224 11.2442 29.2984 11.1954 28.7616 11.1954C28.5356 11.1954 28.3945 11.1304 28.3945 11.0167C28.3945 10.838 28.6486 10.7567 29.1007 10.7567Z" fill="white"></path></svg> 