<svg width="318" height="318" viewBox="0 0 318 318" fill="none" xmlns="http://www.w3.org/2000/svg">
<path fill-rule="evenodd" clip-rule="evenodd" d="M257.056 95.0175C261.798 95.0175 267.29 95.1615 274.028 95.4486C280.766 95.5917 284.258 95.8788 284.758 95.8788L293.244 95.3046C298.984 95.1615 303.477 95.0175 306.72 95.0175C309.715 95.0175 311.463 95.5917 311.463 96.8831C311.463 98.3185 310.215 98.8927 307.968 98.8927C302.478 98.8927 297.985 100.041 294.492 102.338C290 105.496 284.758 114.25 279.019 128.748C277.77 131.906 267.29 157.31 247.573 204.962C227.607 252.902 215.379 281.176 211.385 290.077C210.637 291.799 209.889 293.521 208.891 295.244C208.14 297.11 207.392 298.545 207.142 299.694C206.643 300.697 206.143 301.99 205.395 303.138C204.897 304.287 204.397 305.291 204.147 306.008C203.649 306.725 203.399 307.445 202.901 308.162C202.401 308.88 202.401 309.309 202.15 309.74C201.902 310.172 201.652 310.458 201.402 310.744C201.154 311.032 200.904 311.175 200.654 311.318C200.404 311.318 199.905 311.463 199.655 311.463C198.159 311.463 196.911 310.458 195.662 308.305C194.414 306.296 192.417 301.415 189.424 293.952L155.717 209.67C150.584 207.885 144.523 204.35 137.762 198.935C129.776 192.619 115.801 178.697 95.5855 157.453C75.6196 136.211 58.8984 117.695 45.6712 102.051V131.044C45.6712 163.769 46.1703 184.15 47.1687 191.901C47.6676 196.637 48.6661 200.226 50.1634 202.667C51.4114 205.249 54.1566 206.829 58.1497 207.403C63.3906 208.12 67.1342 208.551 69.3802 208.551C71.6265 208.551 72.6247 209.124 72.6247 210.561C72.6247 211.852 71.3769 212.571 68.6316 212.571C63.8898 212.571 58.8984 212.427 53.4078 212.427C47.9173 212.282 43.4252 212.139 39.6815 211.996C36.1877 211.708 34.1913 211.708 33.9414 211.708C33.6919 211.708 31.945 211.708 28.7005 211.852C25.4561 211.852 21.7127 211.996 17.4699 212.282C13.2272 212.427 9.98273 212.571 7.4871 212.571C4.49224 212.571 2.99487 211.852 2.99487 210.561C2.99487 209.124 3.99313 208.551 6.23931 208.551C8.73496 208.551 10.9812 208.263 13.4769 207.689C17.7196 206.829 20.4646 201.518 21.9621 191.901C22.7109 184.15 23.2099 163.769 23.2099 131.044V81.5258C23.2099 47.0783 23.2099 26.8402 22.7109 20.812C22.2116 11.6261 18.9672 6.45897 13.2272 5.02361C10.4821 4.30598 6.988 3.87543 2.99487 3.87543C0.998264 3.87543 0 3.30115 0 2.29653C0 0.717619 1.49736 0 4.49224 0C7.23759 0 10.9812 3.29067e-08 15.723 0.143536C20.4646 0.143536 24.4579 0.287073 28.2013 0.430545C31.6954 0.717619 33.6919 0.861291 33.9414 0.861291C34.1913 0.861291 35.9381 0.717619 39.4319 0.430545C42.9258 0.287073 46.919 0.143536 51.1617 0.143536C55.6542 3.29067e-08 59.1479 0 61.3942 0C64.3888 0 65.8864 0.717619 65.8864 1.86579C65.8864 3.01415 64.8882 3.7319 62.8915 3.87543L56.6523 4.44932C53.1584 4.88007 50.6625 6.31549 49.1653 8.89905C47.6676 11.6261 46.6695 15.5014 46.42 20.812C45.9208 26.8402 45.6712 47.0783 45.6712 81.5258V99.4669C48.4166 97.0271 53.6576 91.8596 61.3942 83.535C69.1309 75.4973 78.1154 66.0244 88.3475 55.2596C98.58 44.4948 105.817 37.031 109.811 33.1556C117.797 25.118 122.788 19.6639 124.785 16.6497C126.781 13.7789 127.779 11.4825 127.779 9.61667C127.779 6.88958 126.531 5.16714 124.036 4.16244C122.539 3.44488 121.54 2.58354 121.54 1.72225C121.54 0.574081 123.038 0 125.783 0C128.529 0 131.024 0.143536 133.769 0.430545C136.265 0.717619 139.259 0.861291 142.754 0.861291C145.748 0.861291 151.239 0.717619 159.225 0.430545C166.962 0.143536 171.205 0 172.452 0C175.697 0 177.194 0.717619 177.194 1.86579C177.194 3.01415 176.196 3.7319 174.2 3.87543C168.46 4.44932 163.718 5.59768 159.724 7.32013C152.986 9.90367 143.253 17.5109 130.525 29.8545C96.3337 62.723 74.8709 83.9659 66.6351 93.5821C75.1204 102.912 89.3456 117.695 108.813 137.646C121.697 150.947 131.848 161.229 139.266 168.534L120.541 121.714C117.547 114.25 114.802 109.084 112.306 106.357C109.561 103.63 105.568 101.62 100.327 100.041C97.5818 99.3238 94.0874 98.8927 89.5956 98.8927C88.098 98.8927 87.3494 98.3185 87.3494 96.8831C87.3494 95.5917 89.8447 95.0175 94.8364 95.0175C100.077 95.0175 106.566 95.1615 114.552 95.4486C122.29 95.5917 126.282 95.8788 126.781 95.8788C127.28 95.8788 130.525 95.5917 136.764 95.4486C142.754 95.1615 147.995 95.0175 152.237 95.0175C157.478 95.0175 159.974 95.5917 159.974 96.8831C159.974 98.3185 158.976 98.8927 157.229 98.8927C152.237 98.8927 148.494 99.4669 146.497 100.328C144.002 101.476 142.754 103.342 142.754 105.926C142.754 108.366 144.75 114.394 148.494 124.011L178.105 201.277C183.63 204.453 189.182 206.591 194.914 207.689C197.409 208.263 200.155 208.551 203.151 208.551C205.645 208.551 206.893 209.124 206.893 210.561C206.893 211.852 205.645 212.571 202.901 212.571H182.432L205.645 273.14C213.632 254.624 225.111 226.635 239.586 189.031C253.813 151.425 262.548 127.455 265.791 117.121C267.54 112.098 268.288 108.51 268.288 106.5C268.288 103.486 267.29 101.333 264.792 100.041C262.548 99.3238 258.803 98.8927 254.061 98.8927C252.064 98.8927 250.818 98.3185 250.818 97.3142C250.818 95.7357 253.063 95.0175 257.056 95.0175Z" fill="#3E3C38"/>
</svg>
